<?xml version="1.0" standalone="no"?>
<!DOCTYPE svg PUBLIC "-//W3C//DTD SVG 20010904//EN"
 "http://www.w3.org/TR/2001/REC-SVG-20010904/DTD/svg10.dtd">
<svg version="1.0" xmlns="http://www.w3.org/2000/svg"
 width="6283.000000pt" height="6283.000000pt" viewBox="0 0 6283.000000 6283.000000"
 preserveAspectRatio="xMidYMid meet">
<metadata>
Created by potrace 1.14, written by Peter Selinger 2001-2017
</metadata>
<g transform="translate(0.000000,6283.000000) scale(0.100000,-0.100000)"
fill="#000000" stroke="none">
<path d="M55899 48195 c-2 -1 -49 -6 -104 -10 -55 -4 -102 -8 -105 -10 -3 -1
-41 -6 -85 -10 -44 -4 -82 -8 -85 -10 -3 -2 -33 -7 -65 -10 -33 -4 -63 -9 -66
-11 -4 -2 -24 -6 -45 -10 -176 -27 -619 -149 -759 -208 -16 -7 -46 -19 -65
-26 -19 -7 -59 -23 -88 -36 -29 -13 -55 -24 -58 -24 -26 0 -372 -177 -534
-273 -159 -95 -480 -321 -552 -390 -7 -7 -29 -25 -48 -41 -349 -285 -719 -725
-972 -1156 -79 -134 -258 -492 -258 -516 0 -3 -9 -24 -19 -47 -72 -159 -203
-592 -235 -777 -3 -19 -8 -46 -11 -60 -13 -63 -34 -200 -40 -250 -3 -30 -8
-66 -10 -80 -13 -74 -20 -234 -20 -480 0 -276 7 -416 30 -570 2 -14 6 -43 10
-65 3 -23 7 -52 10 -65 3 -13 7 -42 11 -65 3 -22 12 -71 21 -110 8 -38 17 -81
19 -95 3 -14 7 -33 10 -42 3 -9 6 -25 8 -35 3 -14 22 -85 40 -148 22 -79 32
-111 56 -184 218 -661 586 -1253 1089 -1751 197 -196 271 -259 546 -468 58
-44 272 -182 372 -241 81 -47 380 -199 433 -220 43 -17 90 -36 133 -55 101
-45 417 -152 501 -171 12 -2 64 -15 116 -29 83 -21 123 -30 230 -51 14 -3 41
-8 60 -11 19 -3 42 -7 50 -9 8 -2 38 -7 65 -10 28 -4 57 -8 65 -10 14 -4 50
-8 170 -20 251 -26 743 -26 930 0 14 2 52 6 85 10 107 12 129 15 215 30 240
42 437 91 670 166 69 23 139 47 157 55 17 8 33 14 36 14 3 0 18 5 34 12 15 6
30 12 33 13 5 2 21 8 116 48 127 54 308 145 479 242 55 31 288 178 307 194 7
6 51 39 98 72 98 72 272 212 345 278 71 65 302 297 350 351 362 410 656 890
827 1350 21 58 43 114 48 125 8 18 67 201 76 235 2 8 13 51 25 95 28 108 25
93 59 255 35 170 68 401 78 555 13 209 6 660 -12 780 -3 17 -10 73 -17 125
-11 92 -13 108 -24 160 -2 14 -7 39 -10 55 -39 246 -141 590 -255 870 -58 142
-218 468 -231 473 -5 2 -9 8 -9 14 0 24 -296 480 -329 508 -3 3 -22 25 -41 50
-42 55 -56 72 -150 183 -90 108 -386 395 -517 502 -199 164 -317 247 -578 410
-107 67 -461 243 -610 303 -291 117 -699 232 -970 272 -44 7 -87 13 -95 15
-28 5 -175 23 -265 31 -65 7 -671 15 -676 9z"/>
<path d="M31877 46684 c-1 -1 -162 -5 -357 -8 -362 -7 -437 -9 -710 -20 -206
-9 -343 -15 -470 -22 -58 -3 -135 -7 -171 -9 -58 -3 -194 -11 -324 -20 -22 -2
-85 -6 -140 -9 -55 -4 -122 -9 -150 -11 -27 -2 -86 -7 -130 -10 -44 -3 -102
-8 -130 -10 -27 -3 -79 -7 -115 -10 -68 -5 -150 -12 -235 -20 -27 -2 -81 -7
-120 -10 -38 -4 -81 -8 -95 -10 -14 -2 -59 -7 -100 -10 -41 -3 -91 -7 -110
-10 -19 -2 -64 -7 -100 -10 -36 -4 -81 -9 -100 -11 -19 -2 -57 -7 -85 -9 -61
-6 -138 -14 -185 -20 -50 -6 -107 -13 -165 -20 -110 -11 -289 -33 -335 -40
-14 -2 -52 -6 -85 -10 -32 -4 -66 -8 -75 -10 -8 -1 -40 -6 -70 -9 -30 -4 -66
-8 -80 -10 -14 -3 -47 -7 -75 -11 -79 -10 -250 -33 -295 -40 -31 -5 -223 -34
-270 -40 -19 -3 -51 -7 -70 -10 -19 -3 -48 -7 -65 -9 -16 -2 -86 -13 -155 -24
-112 -19 -174 -28 -235 -38 -31 -4 -86 -13 -280 -46 -99 -17 -189 -31 -201
-33 -11 -2 -45 -8 -75 -14 -30 -6 -70 -13 -89 -16 -30 -5 -152 -27 -215 -39
-11 -2 -40 -7 -65 -11 -49 -8 -72 -12 -110 -20 -42 -8 -144 -27 -165 -31 -11
-1 -56 -10 -99 -19 -44 -8 -92 -18 -108 -20 -16 -3 -86 -17 -156 -31 -70 -14
-138 -28 -152 -30 -14 -3 -88 -18 -165 -34 -77 -16 -152 -31 -167 -34 -67 -14
-86 -18 -153 -32 -38 -9 -81 -18 -94 -20 -13 -3 -51 -11 -85 -18 -34 -8 -124
-28 -201 -44 -77 -17 -180 -40 -230 -52 -49 -12 -110 -25 -135 -30 -25 -5
-112 -26 -195 -45 -82 -20 -161 -38 -175 -41 -14 -3 -117 -28 -230 -55 -113
-28 -216 -53 -230 -55 -14 -3 -34 -8 -45 -11 -11 -4 -24 -8 -30 -9 -5 -1 -39
-9 -75 -19 -36 -9 -72 -18 -80 -20 -13 -3 -74 -18 -120 -29 -44 -11 -463 -120
-575 -149 -137 -37 -222 -59 -399 -108 -59 -17 -115 -32 -125 -35 -9 -2 -72
-20 -141 -39 -69 -20 -132 -37 -140 -39 -9 -2 -135 -39 -280 -81 -146 -42
-272 -79 -280 -81 -8 -2 -76 -22 -150 -44 -144 -44 -328 -99 -345 -104 -5 -1
-37 -11 -70 -21 -33 -11 -62 -19 -65 -20 -11 -2 -188 -58 -230 -72 -25 -8 -49
-16 -55 -17 -5 -1 -26 -7 -45 -13 -138 -45 -397 -127 -405 -129 -5 -1 -129
-42 -275 -90 -146 -48 -267 -88 -270 -89 -13 -2 -447 -147 -465 -155 -11 -5
-54 -20 -95 -34 -107 -35 -449 -155 -620 -216 -80 -29 -233 -83 -340 -121
-107 -38 -204 -73 -215 -78 -11 -5 -69 -27 -130 -49 -252 -92 -793 -295 -830
-312 -11 -4 -65 -25 -120 -45 -55 -21 -113 -43 -130 -50 -16 -7 -68 -27 -115
-45 -47 -17 -94 -35 -105 -40 -11 -5 -200 -81 -420 -169 -385 -153 -423 -168
-490 -196 -16 -7 -104 -43 -195 -80 -91 -37 -183 -75 -205 -85 -22 -10 -76
-32 -120 -50 -44 -18 -104 -43 -133 -56 -29 -13 -54 -24 -56 -24 -10 0 -813
-346 -1155 -497 -242 -107 -667 -297 -781 -350 -41 -19 -88 -41 -105 -48 -147
-66 -210 -95 -510 -235 -49 -23 -115 -53 -145 -67 -30 -14 -104 -49 -165 -78
-60 -29 -146 -69 -190 -90 -205 -96 -526 -250 -840 -403 -280 -137 -1466 -731
-1655 -829 -63 -33 -191 -100 -285 -148 -93 -48 -201 -105 -240 -125 -38 -21
-128 -68 -200 -105 -126 -66 -205 -107 -350 -185 -137 -74 -231 -124 -325
-173 -52 -28 -108 -59 -125 -69 -16 -10 -40 -22 -52 -27 -12 -6 -93 -49 -180
-97 -163 -89 -234 -127 -351 -190 -37 -21 -71 -40 -77 -44 -5 -4 -44 -25 -85
-47 -41 -22 -115 -63 -165 -90 -49 -28 -112 -63 -140 -78 -27 -15 -86 -48
-130 -73 -44 -25 -103 -57 -133 -72 -29 -16 -58 -32 -65 -38 -6 -5 -39 -24
-72 -41 -72 -39 -86 -47 -337 -189 -108 -61 -212 -120 -230 -130 -136 -77
-802 -462 -868 -502 -19 -11 -235 -137 -275 -160 -54 -31 -246 -144 -458 -271
-114 -68 -227 -135 -250 -148 -23 -13 -58 -33 -77 -46 -31 -20 -83 -51 -132
-80 -203 -120 -428 -257 -428 -262 0 -2 26 10 58 28 102 56 165 91 252 137 47
24 117 61 155 82 380 202 1298 666 1770 895 261 127 479 232 565 272 41 20
116 55 165 78 50 23 164 77 255 120 91 42 201 94 245 115 75 35 103 48 252
116 32 15 105 48 162 75 57 27 105 49 106 49 2 0 39 16 82 36 43 20 106 49
141 65 35 16 65 29 67 29 2 0 41 17 87 39 177 82 676 301 687 301 6 0 11 5 11
10 0 6 7 10 15 10 8 0 50 16 92 36 110 50 122 55 278 122 77 33 160 68 185 80
178 80 1257 529 1590 662 58 23 118 48 134 56 16 8 33 14 38 14 5 0 35 12 66
26 31 15 62 27 67 29 6 1 24 7 40 14 77 31 419 167 500 198 50 19 99 38 110
43 36 17 513 199 825 316 168 63 314 118 325 123 19 9 115 44 125 47 3 0 12 4
20 7 8 3 40 15 70 25 30 11 147 54 260 95 318 117 594 216 720 259 63 21 131
45 150 53 19 8 103 37 185 65 83 28 157 54 165 57 8 3 20 7 25 9 6 1 120 41
255 87 445 153 1151 386 1595 525 105 33 262 83 350 111 88 27 198 61 245 75
47 14 191 57 320 97 251 76 323 97 355 104 11 3 31 9 45 14 14 6 232 69 485
140 253 72 474 135 492 141 18 6 40 13 50 14 10 2 126 33 258 69 241 66 542
147 645 174 30 7 63 16 73 18 9 3 25 7 35 9 9 2 168 42 352 89 480 121 1034
255 1250 302 8 2 74 17 147 34 72 17 142 32 155 35 21 4 60 13 163 37 52 12
352 76 385 83 14 2 77 16 140 29 63 14 129 27 145 30 17 3 37 8 45 11 8 3 29
7 45 10 17 2 100 18 185 36 85 17 166 33 180 36 14 2 36 7 50 10 14 3 36 8 50
10 14 3 81 16 150 29 173 35 166 33 255 49 102 19 293 54 325 61 13 2 42 7 65
10 22 3 47 8 55 10 8 2 29 7 45 10 17 2 40 7 51 9 12 2 39 7 60 10 39 6 129
22 171 30 11 3 43 8 70 12 26 5 50 9 53 9 3 1 30 5 60 9 30 5 64 10 75 13 27
5 192 33 235 39 19 2 46 7 60 10 14 3 39 8 55 10 17 2 100 15 185 28 85 14
175 28 200 31 25 3 52 8 60 10 8 2 40 7 70 10 30 3 62 8 70 10 8 2 40 7 70 10
30 3 62 8 70 10 8 2 40 7 70 10 30 3 62 8 70 10 8 2 39 7 69 10 30 4 61 8 70
10 9 1 39 6 66 9 28 3 84 11 125 17 111 15 130 17 185 24 28 4 61 8 75 10 14
2 50 7 80 10 30 3 66 8 80 10 14 2 48 6 75 9 28 3 70 9 95 12 57 7 79 10 160
18 36 4 76 9 90 11 25 4 78 10 175 20 28 3 66 7 85 10 19 2 62 7 95 10 84 7
221 21 295 30 31 4 65 7 215 20 22 2 67 6 100 9 33 4 85 9 115 11 30 3 84 8
120 11 96 8 136 12 230 19 47 3 108 8 135 10 28 2 88 7 135 10 47 3 112 8 145
10 85 7 217 15 305 20 41 2 111 6 155 9 73 5 162 9 390 21 44 2 157 7 250 11
94 3 202 7 240 9 542 22 1764 22 2310 0 332 -13 554 -24 655 -30 47 -3 119 -8
160 -10 107 -6 320 -21 445 -31 33 -3 85 -7 115 -9 145 -11 218 -16 250 -20
59 -7 160 -17 204 -20 40 -3 120 -11 201 -20 22 -2 67 -7 100 -10 33 -3 74 -8
90 -10 17 -2 57 -7 90 -10 33 -3 71 -8 85 -11 14 -2 50 -6 80 -9 30 -3 71 -7
90 -10 19 -2 53 -7 75 -9 107 -14 132 -17 155 -21 14 -2 49 -7 79 -10 30 -4
61 -8 70 -10 9 -1 41 -6 71 -10 30 -3 66 -8 80 -10 14 -3 72 -12 130 -20 58
-9 130 -20 160 -25 30 -5 73 -11 95 -15 22 -3 63 -10 90 -15 28 -5 73 -12 100
-16 28 -4 55 -8 60 -10 6 -1 28 -5 50 -8 22 -4 65 -11 95 -16 30 -6 69 -13 85
-15 17 -3 100 -19 185 -35 85 -16 166 -31 180 -34 143 -27 686 -141 785 -166
22 -5 117 -28 210 -50 149 -36 300 -74 650 -165 50 -13 124 -33 165 -45 41
-12 82 -23 90 -25 25 -7 109 -31 235 -70 66 -20 127 -38 135 -40 21 -6 128
-38 245 -74 165 -52 618 -206 810 -276 99 -36 185 -67 190 -69 6 -1 27 -10 49
-19 21 -9 41 -17 45 -17 8 0 365 -140 541 -213 74 -30 153 -63 175 -72 22 -9
49 -20 60 -25 11 -5 121 -54 245 -109 124 -54 275 -122 335 -151 61 -29 139
-65 175 -82 82 -38 490 -242 590 -295 41 -22 120 -64 175 -93 55 -29 120 -64
145 -78 25 -13 74 -40 110 -60 36 -19 82 -46 102 -59 21 -13 40 -23 42 -23 3
0 105 -59 228 -131 123 -73 232 -137 242 -143 11 -6 25 -14 30 -19 10 -7 307
-193 362 -227 176 -107 851 -573 989 -683 6 -4 80 -60 165 -124 218 -164 656
-514 770 -616 14 -13 72 -63 130 -112 58 -50 114 -99 126 -110 12 -11 50 -45
84 -75 35 -30 73 -64 85 -75 11 -11 48 -44 80 -74 343 -313 964 -932 1125
-1121 11 -14 42 -48 68 -75 54 -57 152 -167 273 -305 80 -90 400 -473 464
-553 17 -21 35 -44 40 -50 20 -22 210 -264 300 -382 95 -124 152 -181 238
-238 231 -154 560 -164 806 -26 130 73 223 171 321 339 67 115 179 292 213
335 9 13 17 28 17 33 0 6 3 12 8 14 4 2 27 32 51 68 42 62 287 393 322 435 10
11 57 67 105 125 229 274 556 606 804 817 126 107 322 261 415 326 280 196
534 351 755 462 270 135 419 297 503 546 31 93 40 156 41 274 0 113 -8 174
-39 275 -15 50 -57 131 -125 245 -58 96 -127 217 -151 265 -4 8 -20 42 -37 75
-98 196 -253 601 -287 752 -2 10 -18 72 -35 138 -33 129 -86 419 -96 525 -3
36 -7 76 -10 90 -23 143 -23 906 0 1050 3 14 7 63 11 109 6 83 12 142 21 191
2 14 7 48 10 75 3 28 10 70 16 95 14 66 11 197 -7 263 -63 242 -283 416 -530
419 -161 2 -259 -40 -575 -247 -87 -57 -338 -239 -350 -254 -3 -4 -25 -22 -50
-41 -207 -161 -550 -501 -769 -765 -46 -55 -95 -113 -108 -128 -58 -67 -373
-500 -373 -513 0 -3 -5 -10 -11 -17 -35 -40 -273 -431 -354 -582 -21 -38 -41
-74 -45 -80 -4 -5 -31 -56 -60 -112 -28 -57 -53 -103 -54 -103 -1 0 -24 21
-51 46 -156 143 -461 392 -670 548 -71 53 -137 102 -145 109 -71 62 -688 477
-935 629 -225 138 -211 130 -445 266 -250 146 -315 183 -450 255 -30 16 -73
39 -95 52 -115 65 -606 314 -820 415 -60 29 -161 77 -223 106 -63 30 -115 54
-117 54 -2 0 -41 17 -87 39 -152 71 -663 291 -676 291 -4 1 -25 9 -47 20 -22
11 -43 19 -48 20 -4 0 -26 9 -50 19 -59 27 -448 176 -652 251 -93 34 -192 70
-220 80 -59 22 -226 81 -240 84 -5 2 -17 6 -25 9 -76 31 -873 284 -950 302 -8
2 -53 15 -100 30 -169 51 -948 262 -1040 280 -8 2 -42 10 -75 18 -33 9 -71 18
-85 21 -14 3 -63 15 -110 26 -47 11 -125 29 -175 40 -49 11 -121 27 -160 36
-71 16 -91 20 -133 28 -13 3 -31 7 -40 10 -9 3 -28 7 -42 10 -14 2 -61 12
-105 21 -44 9 -91 19 -105 21 -14 3 -101 20 -195 39 -93 19 -186 37 -205 40
-19 3 -66 12 -105 20 -38 7 -88 16 -110 20 -22 3 -76 12 -120 20 -44 8 -97 17
-119 21 -21 3 -48 8 -60 10 -11 3 -34 7 -51 10 -298 48 -398 64 -440 69 -27 3
-59 8 -70 10 -11 3 -38 7 -60 10 -22 3 -53 7 -70 10 -16 3 -46 7 -65 9 -49 7
-337 46 -382 52 -48 6 -78 10 -158 19 -36 4 -73 9 -82 10 -9 2 -45 6 -80 10
-35 3 -74 8 -88 10 -14 2 -54 6 -90 10 -36 4 -76 8 -90 10 -14 2 -56 7 -95 10
-38 3 -86 8 -105 10 -19 2 -66 6 -105 10 -38 3 -82 8 -96 10 -14 3 -61 7 -105
10 -43 3 -93 7 -109 9 -17 2 -73 7 -125 10 -52 4 -111 9 -130 11 -19 3 -75 7
-125 10 -49 3 -110 8 -135 10 -81 7 -235 17 -480 29 -63 4 -149 9 -190 11 -41
3 -149 8 -240 11 -91 3 -210 7 -265 9 -290 11 -1430 26 -1438 19z"/>
<path d="M18258 34225 c-2 -1 -59 -5 -128 -9 -133 -7 -208 -12 -305 -21 -57
-5 -88 -8 -180 -20 -22 -3 -62 -7 -90 -10 -27 -3 -57 -8 -65 -10 -8 -2 -35 -7
-60 -10 -48 -7 -248 -41 -290 -51 -14 -3 -36 -7 -50 -10 -14 -3 -54 -12 -90
-20 -36 -9 -72 -17 -80 -19 -173 -38 -484 -136 -700 -220 -534 -208 -1062
-534 -1460 -901 -138 -128 -359 -357 -421 -439 -13 -16 -29 -34 -35 -40 -30
-28 -204 -262 -300 -405 -184 -273 -424 -725 -524 -985 -7 -16 -16 -41 -22
-55 -5 -14 -9 -26 -9 -27 0 -2 -11 -26 -24 -55 -14 -29 -25 -58 -25 -64 0 -6
-8 -29 -17 -50 -9 -22 -18 -43 -20 -49 -1 -5 -29 -91 -62 -190 -67 -203 -99
-309 -107 -350 -3 -16 -7 -32 -10 -37 -12 -18 -88 -346 -129 -553 -44 -223
-70 -372 -89 -522 -9 -67 -17 -120 -22 -144 -3 -14 -7 -50 -9 -79 -3 -29 -7
-70 -10 -90 -3 -21 -7 -59 -10 -86 -11 -129 -16 -192 -20 -224 -3 -19 -7 -78
-10 -130 -4 -52 -8 -111 -10 -130 -26 -280 -26 -1394 0 -1670 2 -19 6 -78 10
-130 3 -52 7 -115 10 -140 2 -25 7 -74 10 -110 9 -100 16 -166 29 -275 17
-134 26 -201 31 -235 2 -14 6 -45 10 -70 3 -25 8 -56 10 -70 12 -57 14 -69 20
-121 4 -30 8 -56 10 -59 2 -3 6 -24 9 -46 7 -44 7 -46 31 -159 10 -44 19 -93
22 -110 8 -55 94 -399 135 -545 44 -155 197 -608 228 -675 5 -11 28 -65 51
-120 159 -382 361 -749 588 -1070 47 -66 89 -124 93 -130 5 -5 31 -39 60 -75
196 -250 462 -522 721 -738 69 -57 291 -219 373 -272 461 -297 932 -505 1469
-649 227 -60 536 -122 730 -146 28 -4 61 -8 75 -10 25 -5 172 -20 270 -29 50
-5 109 -9 300 -21 77 -5 614 -5 715 0 68 3 213 12 305 20 45 3 133 12 200 20
19 3 58 7 85 10 28 4 75 10 105 15 30 5 78 12 105 16 28 3 52 8 55 9 3 2 26 6
50 10 25 3 63 10 85 15 22 5 54 11 70 14 45 8 60 12 180 41 61 14 117 28 125
30 130 30 572 177 594 196 6 5 16 9 24 9 7 0 84 31 170 70 274 121 550 275
772 428 82 57 245 177 260 192 3 3 28 23 55 44 28 22 57 47 66 55 9 9 45 41
80 71 187 161 450 447 620 676 41 54 77 101 80 104 15 13 205 310 273 427 74
128 230 428 256 495 8 18 26 61 42 96 94 208 194 484 283 777 20 66 38 127 40
135 2 8 15 58 29 110 26 93 91 371 100 420 2 14 9 46 15 73 6 26 13 62 16 80
2 17 9 57 15 87 6 30 13 69 15 85 3 17 7 41 10 55 5 28 11 65 20 125 3 23 7
50 9 61 2 12 7 45 11 75 3 30 8 65 10 79 2 14 6 45 10 70 3 25 7 61 10 80 7
55 21 193 30 305 4 39 8 86 10 105 2 19 7 82 10 140 3 58 8 137 10 175 24 354
23 1101 0 1495 -9 141 -20 299 -30 405 -3 33 -8 87 -11 120 -5 52 -10 101 -29
255 -9 70 -25 196 -30 220 -4 25 -10 69 -21 138 -6 41 -21 134 -29 172 -3 14
-9 50 -15 80 -13 71 -18 99 -25 130 -3 14 -7 34 -9 45 -3 11 -14 63 -26 115
-12 52 -23 103 -25 113 -2 10 -6 26 -9 35 -3 9 -8 28 -10 42 -8 36 -30 122
-56 215 -12 44 -26 94 -30 110 -4 17 -29 95 -56 175 -26 80 -49 150 -50 155
-1 6 -21 62 -44 125 -192 520 -451 1012 -740 1411 -44 61 -85 116 -90 122 -6
7 -38 46 -71 87 -122 149 -156 187 -302 335 -166 169 -277 269 -452 406 -307
240 -686 463 -1045 613 -74 32 -144 61 -155 66 -221 96 -737 238 -1065 294
-14 2 -41 7 -60 10 -83 14 -97 16 -135 21 -51 7 -113 15 -145 20 -14 2 -54 6
-90 10 -36 3 -81 8 -100 10 -33 4 -123 11 -265 21 -62 5 -713 12 -717 9z m552
-2238 c14 -3 43 -8 65 -11 104 -14 126 -19 212 -41 600 -157 1040 -581 1323
-1275 23 -58 46 -114 51 -125 15 -34 97 -287 114 -350 9 -33 18 -67 20 -75 13
-43 55 -215 59 -238 2 -15 13 -70 25 -122 11 -52 23 -111 26 -130 3 -19 8 -46
10 -60 3 -14 8 -36 10 -50 3 -14 7 -38 9 -55 3 -16 7 -43 10 -60 10 -57 35
-250 41 -310 3 -33 7 -69 10 -80 2 -11 7 -56 11 -100 3 -44 8 -87 9 -96 2 -9
6 -61 10 -115 4 -55 8 -110 10 -124 3 -14 7 -79 11 -145 3 -66 7 -145 9 -175
24 -387 24 -1360 0 -1745 -9 -148 -16 -262 -20 -310 -2 -27 -6 -88 -10 -135
-3 -47 -8 -98 -10 -115 -2 -16 -7 -61 -10 -98 -4 -37 -8 -76 -10 -85 -1 -9 -6
-47 -9 -84 -4 -37 -9 -77 -11 -90 -4 -27 -11 -74 -20 -143 -16 -117 -81 -481
-89 -494 -2 -3 -7 -22 -10 -41 -28 -180 -157 -598 -253 -824 -89 -208 -227
-459 -307 -557 -11 -15 -30 -39 -41 -54 -86 -121 -271 -298 -412 -395 -116
-80 -333 -188 -433 -216 -208 -58 -314 -78 -480 -91 -155 -12 -418 -6 -520 12
-14 2 -41 6 -60 9 -94 14 -281 62 -362 95 -45 18 -83 32 -88 34 -3 0 -34 17
-70 36 -36 18 -78 41 -95 49 -140 71 -361 263 -497 432 -150 187 -299 449
-394 692 -20 51 -42 107 -49 123 -7 17 -29 80 -48 140 -132 410 -227 889 -282
1420 -4 33 -8 74 -10 90 -2 17 -6 68 -10 115 -3 47 -8 99 -10 115 -2 17 -6 77
-10 135 -3 58 -8 128 -10 155 -27 291 -27 1557 0 1915 2 30 7 101 10 158 4 57
8 120 10 140 2 20 6 73 9 117 4 44 9 96 11 115 2 19 7 60 10 90 10 93 21 183
36 285 5 39 11 84 14 100 19 142 81 471 110 585 8 30 16 66 19 80 10 50 58
217 98 340 210 650 519 1105 928 1365 175 112 377 194 590 239 76 16 109 21
215 32 33 4 62 8 63 9 6 5 445 -3 472 -8z"/>
<path d="M39768 34225 c-2 -1 -70 -6 -153 -9 -82 -4 -161 -8 -175 -10 -14 -2
-63 -7 -110 -10 -46 -4 -87 -9 -90 -11 -3 -1 -39 -6 -80 -9 -41 -4 -82 -9 -90
-11 -8 -2 -35 -6 -60 -9 -25 -3 -55 -8 -66 -10 -12 -2 -37 -7 -55 -10 -55 -9
-160 -30 -254 -50 -21 -5 -130 -30 -135 -31 -3 -1 -18 -5 -35 -9 -996 -256
-1799 -793 -2307 -1541 -198 -292 -378 -673 -467 -990 -17 -60 -38 -132 -46
-160 -16 -57 -50 -210 -59 -269 -4 -21 -8 -41 -10 -45 -2 -3 -7 -33 -11 -66
-3 -32 -8 -62 -10 -65 -1 -3 -6 -36 -9 -75 -4 -38 -9 -77 -11 -85 -2 -8 -7
-53 -10 -100 -4 -47 -8 -105 -10 -130 -5 -63 -6 -522 -1 -600 5 -73 14 -178
21 -230 10 -77 16 -126 21 -155 3 -16 7 -43 10 -60 2 -16 10 -55 16 -85 6 -30
11 -58 10 -62 -1 -4 3 -19 8 -33 5 -14 12 -40 16 -58 8 -50 52 -203 86 -302
165 -485 432 -909 813 -1290 71 -72 159 -155 194 -185 35 -30 69 -60 75 -66
25 -24 247 -194 326 -250 153 -108 436 -284 595 -369 260 -140 598 -300 825
-392 47 -19 99 -40 115 -48 92 -40 379 -147 700 -260 88 -31 183 -64 210 -75
28 -10 131 -49 230 -85 218 -81 654 -254 714 -285 9 -4 41 -19 71 -33 761
-345 1119 -658 1243 -1087 23 -78 28 -102 42 -195 11 -77 16 -148 15 -255 0
-138 -3 -165 -37 -350 -2 -14 -18 -65 -34 -115 -155 -462 -572 -746 -1164
-791 -89 -7 -328 -7 -390 0 -22 2 -74 7 -115 11 -41 4 -84 9 -95 11 -10 2 -37
6 -60 10 -22 3 -58 9 -80 14 -22 5 -54 11 -70 14 -52 9 -231 65 -312 97 -90
35 -244 111 -284 139 -15 11 -30 20 -34 20 -22 0 -217 160 -310 254 -205 206
-355 439 -478 741 -58 143 -127 349 -152 455 -2 8 -15 62 -29 120 -22 94 -36
162 -51 255 -3 17 -8 41 -11 53 -2 13 -7 43 -11 65 -7 59 -16 66 -66 57 -23
-5 -64 -11 -92 -14 -63 -8 -99 -13 -205 -26 -274 -34 -304 -38 -365 -45 -27
-3 -59 -7 -70 -9 -11 -2 -49 -7 -85 -11 -36 -3 -93 -11 -128 -16 -35 -5 -89
-12 -120 -15 -31 -3 -68 -7 -82 -9 -14 -2 -47 -7 -75 -10 -27 -3 -61 -8 -75
-10 -14 -3 -52 -7 -85 -10 -33 -4 -67 -8 -75 -10 -8 -2 -46 -7 -85 -11 -38 -3
-77 -8 -86 -9 -9 -2 -40 -6 -70 -10 -75 -8 -208 -25 -244 -30 -16 -2 -52 -7
-80 -10 -27 -3 -66 -8 -85 -10 -57 -8 -102 -14 -152 -20 -86 -9 -143 -16 -168
-20 -14 -2 -48 -7 -76 -10 -28 -3 -59 -7 -70 -9 -10 -2 -50 -7 -89 -11 -38 -4
-78 -9 -89 -11 -10 -2 -44 -6 -75 -9 -31 -4 -67 -8 -81 -11 -14 -2 -49 -6 -79
-10 -30 -3 -62 -8 -70 -9 -9 -2 -22 -4 -29 -4 -8 -1 -11 -8 -8 -18 3 -10 8
-43 11 -73 3 -30 8 -66 11 -80 8 -42 11 -63 19 -110 4 -25 9 -54 11 -65 2 -11
7 -33 10 -50 5 -31 52 -258 58 -285 79 -332 179 -635 306 -925 57 -130 156
-330 204 -410 65 -110 163 -263 206 -323 25 -35 52 -74 60 -85 152 -220 461
-539 723 -745 99 -78 245 -182 256 -182 4 0 16 -9 26 -20 10 -11 24 -20 31
-20 7 0 14 -3 16 -8 10 -22 389 -227 573 -309 234 -103 643 -242 855 -289 19
-4 40 -9 45 -10 46 -12 237 -54 265 -59 19 -3 53 -10 75 -15 22 -5 56 -11 75
-14 19 -3 78 -12 130 -20 52 -9 115 -18 140 -21 25 -3 56 -7 70 -10 14 -2 54
-7 90 -10 36 -4 81 -8 100 -10 19 -2 67 -7 105 -10 39 -3 90 -8 115 -10 264
-26 1200 -26 1338 -1 9 2 58 7 107 10 50 4 101 9 115 11 14 2 43 7 65 9 58 8
126 17 155 21 14 2 45 7 70 10 73 10 310 55 380 71 36 9 74 17 85 20 19 3 74
16 85 19 3 1 19 5 35 9 119 30 387 114 502 157 317 118 548 230 848 412 77 46
299 208 395 286 233 190 506 487 674 733 134 197 262 433 346 638 23 58 46
114 51 125 13 30 97 286 103 315 3 14 17 70 31 125 13 55 27 112 30 128 3 15
12 58 19 95 17 77 52 338 63 462 15 175 8 827 -11 925 -2 11 -7 47 -10 80 -4
33 -9 71 -11 85 -2 14 -11 70 -20 124 -70 443 -244 890 -488 1256 -148 222
-347 447 -568 640 -41 36 -76 67 -79 70 -3 3 -34 28 -70 55 -36 28 -67 53 -70
56 -38 43 -571 389 -600 389 -4 0 -10 3 -12 8 -4 9 -27 21 -273 147 -299 152
-603 286 -920 405 -60 22 -117 44 -125 47 -8 3 -19 7 -25 9 -5 2 -84 30 -175
63 -91 33 -325 113 -520 177 -511 167 -661 221 -975 345 -601 238 -991 466
-1249 727 -43 44 -104 116 -135 159 -55 77 -138 225 -146 261 -2 9 -12 37 -21
62 -71 193 -89 522 -43 785 102 580 485 944 1084 1031 68 10 395 11 474 1 680
-84 1146 -493 1416 -1241 55 -154 128 -435 155 -596 10 -63 21 -126 24 -140 3
-14 7 -43 10 -65 13 -112 18 -152 22 -174 2 -13 6 -65 10 -115 6 -83 16 -112
35 -100 4 2 63 16 131 29 68 14 132 27 143 30 11 2 43 8 70 14 28 5 79 17 115
25 36 9 83 18 105 22 53 8 57 9 80 17 11 3 36 8 55 11 19 3 87 16 150 30 106
23 290 61 336 70 10 2 66 14 124 26 58 12 114 24 124 26 11 2 65 13 120 25 56
11 110 22 121 25 18 3 124 26 135 29 3 1 25 5 50 9 25 4 82 16 127 27 44 10
96 21 114 24 18 3 130 26 248 51 119 25 225 47 236 49 20 4 251 52 290 60 11
3 34 7 50 11 72 14 105 26 100 34 -3 6 -9 31 -12 57 -4 38 -79 417 -97 494
-51 215 -188 637 -255 784 -5 11 -33 72 -61 135 -56 125 -161 329 -191 372
-11 14 -19 29 -19 32 0 6 -35 62 -118 190 -63 97 -206 285 -302 396 -78 91
-273 287 -356 359 -51 45 -222 182 -254 204 -378 266 -705 435 -1117 577 -100
35 -294 94 -343 106 -8 1 -60 14 -115 28 -55 14 -111 27 -125 30 -14 2 -36 7
-50 10 -27 6 -40 9 -170 32 -131 23 -210 35 -325 49 -27 3 -64 8 -80 10 -39 5
-128 13 -225 20 -41 3 -106 8 -145 11 -69 6 -652 13 -657 9z"/>
<path d="M54338 34225 c-2 -1 -70 -5 -153 -9 -82 -3 -163 -8 -180 -10 -16 -2
-66 -7 -110 -11 -109 -9 -145 -13 -180 -19 -16 -2 -55 -8 -85 -11 -152 -18
-495 -89 -676 -140 -656 -183 -1226 -480 -1654 -861 -71 -63 -283 -277 -331
-334 -29 -36 -56 -67 -59 -70 -15 -13 -140 -180 -166 -220 -16 -25 -31 -47
-34 -50 -22 -22 -138 -216 -197 -332 -113 -220 -190 -408 -258 -633 -36 -119
-89 -328 -100 -395 -3 -19 -12 -71 -20 -115 -8 -44 -17 -100 -20 -125 -8 -66
-16 -132 -20 -160 -2 -14 -7 -70 -10 -125 -4 -55 -9 -120 -11 -145 -9 -116 -3
-516 11 -650 3 -30 8 -80 10 -110 3 -30 8 -66 10 -80 3 -14 7 -41 9 -60 28
-223 143 -651 216 -802 11 -23 20 -45 20 -50 0 -15 109 -234 170 -342 179
-316 446 -639 740 -896 41 -36 81 -71 88 -78 49 -45 341 -264 410 -307 9 -5
21 -14 26 -18 44 -34 285 -181 420 -257 175 -98 640 -330 662 -330 2 0 29 -12
61 -26 32 -14 72 -32 88 -39 17 -7 51 -22 77 -34 26 -11 50 -21 52 -21 2 0 21
-8 42 -17 22 -9 44 -18 49 -19 6 -2 80 -30 165 -64 85 -33 205 -78 265 -99 61
-22 175 -62 255 -91 80 -28 159 -56 175 -61 17 -5 39 -13 50 -18 11 -6 88 -35
170 -65 160 -58 427 -160 460 -176 11 -5 97 -41 190 -80 549 -231 920 -456
1142 -694 94 -100 185 -238 223 -336 7 -19 19 -48 25 -65 24 -56 50 -170 61
-255 3 -25 7 -56 10 -70 2 -14 4 -95 5 -180 0 -280 -56 -506 -175 -700 -147
-239 -378 -409 -676 -496 -84 -25 -102 -30 -150 -39 -14 -3 -36 -7 -50 -10
-14 -3 -50 -8 -80 -11 -30 -3 -68 -8 -85 -10 -39 -5 -368 -5 -420 1 -22 2 -69
7 -105 10 -36 3 -76 8 -90 10 -14 3 -41 7 -60 10 -519 80 -972 341 -1259 727
-34 46 -69 91 -77 101 -8 9 -14 19 -14 21 0 1 -23 41 -51 87 -97 161 -220 446
-274 634 -10 33 -20 67 -23 75 -3 8 -6 20 -7 25 -2 6 -11 39 -20 75 -9 36 -18
72 -20 80 -2 8 -8 33 -14 55 -5 22 -13 56 -16 75 -3 19 -8 42 -10 50 -5 17 -8
33 -32 179 l-17 107 -46 -7 c-25 -4 -72 -10 -105 -13 -33 -4 -107 -13 -165
-21 -58 -8 -132 -17 -165 -20 -33 -3 -71 -8 -85 -10 -14 -3 -47 -7 -75 -10
-67 -8 -204 -25 -235 -30 -14 -2 -50 -6 -80 -10 -58 -6 -96 -11 -170 -21 -57
-8 -71 -9 -150 -19 -36 -4 -73 -9 -82 -10 -9 -2 -48 -7 -85 -10 -37 -4 -76 -9
-87 -11 -10 -2 -44 -6 -75 -10 -31 -3 -65 -8 -76 -10 -11 -2 -45 -6 -75 -9
-30 -3 -66 -7 -80 -10 -23 -3 -43 -6 -170 -20 -25 -3 -54 -7 -65 -9 -11 -2
-49 -7 -85 -11 -36 -3 -93 -11 -126 -16 -34 -5 -84 -11 -110 -14 -27 -2 -65
-7 -84 -10 -46 -6 -88 -11 -245 -30 -71 -9 -141 -18 -155 -20 -14 -2 -45 -6
-70 -9 -71 -8 -164 -20 -172 -22 -5 -1 -15 -2 -24 -3 -8 0 -13 -4 -11 -8 3 -5
8 -33 11 -63 4 -30 11 -82 17 -115 6 -33 13 -73 15 -90 3 -26 27 -158 38 -210
2 -11 12 -56 21 -100 31 -149 122 -487 145 -540 5 -11 14 -38 21 -60 20 -68
110 -307 140 -373 16 -34 29 -65 29 -68 0 -12 118 -248 183 -364 142 -254 334
-526 506 -715 472 -517 1014 -872 1731 -1133 228 -83 584 -181 830 -227 14 -3
48 -9 75 -15 75 -15 320 -52 420 -64 144 -17 219 -26 285 -31 41 -4 95 -8 120
-10 322 -28 1038 -27 1350 1 144 13 171 15 250 25 117 13 162 19 180 24 8 2
38 7 65 10 28 4 59 8 70 9 11 2 34 6 50 9 17 4 46 9 65 12 150 24 505 111 680
167 448 143 863 341 1190 566 93 64 244 176 266 197 6 5 33 28 59 50 134 110
326 305 442 446 347 425 582 898 717 1440 37 152 37 152 62 294 19 110 21 124
30 200 3 33 8 67 9 76 2 8 6 55 10 105 3 49 8 109 11 134 5 49 5 520 0 585 -2
22 -6 83 -10 135 -4 52 -9 106 -11 120 -2 14 -7 49 -10 79 -4 30 -8 62 -10 71
-2 9 -6 41 -10 71 -4 30 -8 56 -10 59 -2 3 -6 26 -10 50 -3 25 -11 63 -17 85
-5 22 -12 49 -14 60 -30 154 -148 507 -209 625 -7 14 -30 59 -50 100 -106 214
-253 433 -419 625 -83 96 -266 278 -351 350 -38 32 -72 61 -75 65 -22 30 -394
294 -535 380 -351 213 -749 410 -1190 587 -192 77 -190 76 -238 97 -21 9 -43
16 -50 16 -7 0 -24 6 -39 14 -14 8 -43 19 -65 26 -21 6 -47 15 -58 20 -35 16
-158 58 -660 225 -451 150 -889 306 -958 342 -16 8 -36 16 -45 18 -30 7 -292
124 -421 189 -340 170 -546 309 -731 495 -266 266 -385 563 -383 951 1 106 9
234 18 280 3 14 9 48 15 75 14 76 17 85 35 150 93 319 316 585 609 724 219
105 384 137 701 135 247 -1 425 -31 616 -105 250 -96 477 -263 644 -474 22
-27 42 -52 45 -55 7 -7 93 -138 117 -180 118 -201 213 -440 286 -720 19 -74
38 -148 41 -165 3 -16 13 -68 22 -115 9 -47 17 -96 19 -110 2 -14 8 -54 14
-90 5 -36 13 -87 16 -115 4 -27 8 -60 10 -73 4 -24 18 -195 19 -224 0 -12 6
-16 16 -13 8 2 40 10 70 15 30 6 66 14 80 16 14 3 45 10 70 15 25 6 56 13 70
15 14 3 79 16 145 30 66 14 131 27 145 30 27 5 56 11 93 19 12 3 35 8 51 10
16 3 157 33 315 66 157 33 296 62 308 65 12 2 131 27 265 55 134 27 275 56
313 64 39 8 126 26 195 41 215 45 264 55 290 60 14 2 79 16 145 30 66 14 163
34 215 45 227 47 265 57 263 66 -1 6 -5 32 -9 59 -3 27 -7 56 -9 64 -2 8 -10
56 -19 105 -9 50 -28 142 -42 205 -14 63 -28 124 -30 136 -13 72 -146 505
-173 569 -5 11 -29 72 -54 135 -82 210 -218 486 -315 640 -91 145 -170 262
-226 335 -453 596 -1038 1029 -1761 1305 -91 35 -328 115 -372 125 -10 3 -79
21 -153 40 -128 34 -422 96 -520 109 -25 4 -79 11 -120 17 -41 6 -86 12 -100
14 -14 2 -50 7 -80 10 -30 3 -75 7 -100 10 -64 6 -170 14 -275 21 -92 6 -642
13 -647 9z"/>
<path d="M1370 27384 c0 -5332 3 -6674 13 -6675 67 -5 2749 -1 2753 4 4 4 7
921 6 2039 0 2103 -5 2714 -27 3463 -3 110 -7 281 -10 380 -3 99 -7 241 -10
315 -12 328 -16 433 -20 555 -5 127 -10 268 -20 470 -2 55 -7 159 -10 230 -7
146 -11 239 -20 400 -3 61 -8 148 -10 195 -6 123 -14 265 -19 340 -3 36 -8
117 -11 180 -3 63 -8 133 -10 156 -1 22 -6 94 -10 160 -4 65 -8 137 -10 159
-2 22 -7 83 -10 135 -3 52 -7 118 -10 145 -2 28 -6 88 -9 135 -9 118 -14 195
-21 265 -2 33 -7 92 -10 130 -3 39 -8 93 -10 121 -3 28 -7 80 -10 115 -2 35
-7 89 -10 119 -9 96 -15 153 -20 215 -3 33 -7 76 -9 95 -16 132 -17 170 -4
171 29 2 133 -3 136 -6 4 -3 54 -218 87 -365 7 -36 28 -121 45 -190 17 -69 33
-132 35 -140 5 -22 26 -113 30 -130 2 -8 17 -67 34 -130 16 -63 41 -158 55
-210 145 -551 308 -1074 521 -1665 89 -247 104 -290 198 -555 31 -85 76 -213
102 -285 82 -227 86 -239 105 -295 10 -30 28 -80 40 -110 12 -30 23 -64 25
-75 3 -11 9 -29 14 -40 10 -21 39 -100 221 -615 61 -173 117 -330 125 -348 8
-18 15 -37 15 -43 0 -6 6 -25 14 -42 7 -18 54 -147 104 -287 196 -554 454
-1277 467 -1310 7 -19 38 -105 68 -190 31 -85 97 -270 147 -410 50 -140 93
-259 94 -265 2 -5 6 -17 9 -25 4 -8 13 -35 22 -60 40 -114 97 -276 138 -390
25 -69 93 -260 151 -425 59 -165 113 -316 121 -335 8 -19 30 -82 50 -140 20
-58 57 -161 82 -230 50 -140 116 -327 134 -380 7 -19 16 -44 20 -55 5 -11 52
-141 105 -290 53 -148 116 -326 141 -395 24 -69 46 -129 47 -135 2 -5 8 -23
14 -38 7 -15 15 -39 18 -53 3 -13 11 -27 17 -31 13 -8 4435 -8 4443 0 5 4 9
13046 5 13308 l-1 37 -1385 0 -1385 0 -1 -22 c0 -11 -1 -1004 -1 -2206 -1
-2405 6 -3106 37 -3925 2 -66 7 -187 10 -270 3 -82 8 -199 10 -260 3 -60 7
-159 10 -220 10 -229 16 -352 20 -425 3 -41 7 -124 10 -185 3 -60 7 -139 9
-175 3 -36 7 -114 11 -175 3 -60 8 -144 10 -185 3 -41 7 -113 10 -160 3 -47 7
-114 10 -150 2 -36 7 -103 10 -150 3 -47 7 -110 10 -140 3 -30 7 -95 10 -145
3 -49 8 -108 10 -130 2 -22 7 -85 10 -140 3 -55 8 -116 10 -135 2 -19 6 -73
10 -120 3 -47 7 -105 10 -130 3 -25 7 -79 10 -120 3 -41 8 -96 11 -121 3 -25
7 -68 9 -95 11 -147 16 -212 20 -239 2 -16 7 -69 10 -118 3 -48 8 -96 10 -107
2 -10 7 -59 10 -107 4 -48 9 -95 10 -104 2 -8 6 -51 10 -95 4 -43 8 -93 10
-111 l2 -31 -73 -1 -73 -1 -9 33 c-15 47 -54 228 -53 242 0 2 -6 23 -14 45 -8
22 -12 40 -10 40 3 0 0 11 -5 26 -6 14 -12 39 -15 55 -6 32 -49 211 -65 269
-5 19 -28 107 -51 195 -23 88 -57 216 -76 285 -19 69 -36 130 -37 135 -4 18
-27 99 -42 145 -7 25 -37 122 -65 215 -28 94 -60 199 -71 235 -11 36 -22 74
-25 85 -2 11 -9 29 -13 40 -5 11 -38 108 -73 215 -58 176 -526 1497 -547 1545
-8 19 -42 114 -116 330 -19 55 -39 109 -44 120 -5 11 -16 40 -24 65 -8 25 -26
77 -41 115 -15 39 -28 77 -30 85 -2 8 -42 121 -89 250 -46 129 -120 336 -164
460 -44 124 -89 250 -100 280 -11 30 -34 96 -52 145 -17 50 -35 99 -40 110 -5
11 -13 34 -18 50 -14 41 -174 493 -272 765 -68 188 -141 395 -144 405 -2 6 -6
17 -9 25 -4 8 -29 78 -56 155 -27 77 -68 192 -91 255 -23 63 -50 140 -60 170
-11 30 -35 100 -55 155 -20 55 -57 159 -82 230 -24 72 -48 139 -53 150 -9 20
-64 174 -135 375 -20 58 -43 122 -51 142 -7 21 -50 140 -95 265 -44 126 -91
257 -104 293 -13 36 -35 97 -48 135 -42 119 -468 1309 -483 1349 -4 11 -377
13 -2230 13 l-2224 1 0 -6674z"/>
<path d="M27241 34046 c-4 -6 -20 -60 -35 -121 -15 -60 -29 -117 -32 -125 -2
-8 -10 -42 -19 -75 -45 -174 -67 -260 -70 -275 -2 -8 -22 -87 -45 -175 -23
-88 -43 -167 -45 -175 -2 -8 -37 -148 -78 -310 -42 -162 -105 -412 -142 -555
-36 -143 -93 -363 -125 -490 -32 -126 -91 -356 -130 -510 -39 -154 -96 -377
-127 -495 -80 -314 -93 -362 -99 -390 -3 -14 -12 -48 -20 -76 -8 -28 -16 -60
-18 -70 -2 -11 -41 -163 -86 -339 -45 -176 -83 -328 -85 -338 -3 -10 -7 -27
-10 -37 -3 -10 -8 -27 -10 -37 -2 -10 -14 -54 -26 -98 -11 -44 -23 -88 -25
-97 -2 -10 -6 -26 -8 -35 -5 -22 -165 -650 -212 -833 -20 -74 -37 -142 -39
-150 -2 -8 -17 -71 -35 -140 -18 -69 -33 -132 -36 -140 -2 -8 -33 -132 -70
-275 -36 -143 -67 -267 -70 -275 -2 -8 -29 -114 -60 -235 -30 -121 -57 -227
-59 -235 -2 -8 -12 -49 -23 -90 -20 -72 -230 -899 -237 -930 -2 -8 -13 -51
-25 -95 -37 -139 -91 -349 -96 -375 -3 -14 -10 -43 -16 -65 -17 -61 -22 -79
-32 -122 -3 -15 -56 -223 -72 -283 -5 -19 -72 -280 -124 -485 -23 -88 -43
-167 -45 -175 -2 -8 -15 -62 -30 -120 -15 -58 -28 -112 -30 -120 -4 -16 -83
-322 -141 -550 -19 -74 -37 -142 -39 -150 -2 -8 -15 -62 -30 -120 -15 -58 -28
-112 -30 -120 -2 -8 -24 -94 -49 -190 -24 -96 -66 -256 -91 -355 -45 -174 -50
-195 -59 -232 -2 -10 -14 -56 -26 -103 -12 -47 -23 -92 -25 -100 -2 -8 -29
-114 -60 -235 -31 -121 -59 -231 -61 -244 -3 -14 -7 -28 -10 -33 -3 -4 -7 -16
-9 -25 -2 -10 -11 -47 -20 -83 -8 -36 -17 -72 -19 -80 -8 -32 -166 -648 -179
-697 -10 -37 -11 -53 -3 -54 6 0 665 -1 1464 -2 l1453 -2 9 35 c25 98 52 208
57 229 2 14 22 99 44 190 22 91 42 173 44 181 2 8 22 92 45 185 23 94 44 179
46 190 2 11 19 84 38 162 20 78 37 152 40 165 3 12 14 60 25 105 11 45 22 92
25 105 2 13 9 43 16 68 7 25 14 53 16 62 2 10 6 26 8 36 55 224 68 281 72 302
3 14 10 43 16 65 5 22 11 47 13 55 2 8 8 35 15 60 7 25 13 50 14 55 4 16 30
130 31 135 1 3 5 19 9 35 38 150 48 193 52 210 2 11 11 49 20 84 9 36 17 72
19 80 13 61 35 154 45 196 7 28 18 70 24 95 l12 45 2044 0 2045 0 18 -75 c10
-41 19 -82 21 -90 2 -8 47 -190 101 -405 53 -214 98 -397 100 -405 3 -14 19
-82 142 -580 30 -124 56 -232 58 -240 2 -8 38 -152 80 -320 41 -168 80 -323
85 -345 5 -22 16 -69 25 -105 9 -36 18 -72 20 -80 2 -8 9 -35 15 -60 14 -56
27 -107 34 -140 3 -14 20 -82 37 -152 28 -113 34 -128 53 -129 100 -4 3137 -1
3141 3 3 3 -13 77 -36 164 -22 88 -43 166 -44 174 -2 8 -16 60 -30 115 -26 96
-63 244 -70 275 -3 13 -37 144 -51 195 -3 11 -9 36 -14 55 -15 65 -18 75 -43
170 -25 93 -81 310 -233 910 -41 162 -81 318 -89 345 -7 28 -18 70 -24 95 -6
25 -29 114 -52 199 -22 84 -42 161 -44 171 -2 10 -22 89 -45 176 -23 88 -44
170 -46 184 -3 14 -9 39 -14 55 -9 29 -87 333 -95 367 -9 39 -77 305 -85 333
-6 17 -21 75 -34 130 -20 80 -114 447 -132 515 -2 8 -15 58 -28 110 -29 115
-136 532 -177 690 -17 63 -32 122 -34 130 -2 8 -19 78 -39 155 -20 77 -38 147
-40 155 -2 8 -9 35 -16 60 -7 25 -13 52 -15 60 -2 8 -11 44 -20 80 -9 36 -19
72 -20 80 -4 16 -79 308 -126 490 -17 63 -32 122 -34 130 -1 8 -13 53 -25 100
-12 47 -23 92 -25 100 -2 8 -15 60 -30 115 -15 55 -30 116 -35 135 -4 19 -26
105 -48 190 -23 85 -70 270 -106 410 -36 140 -79 309 -96 375 -17 66 -33 127
-35 135 -9 39 -77 309 -85 335 -9 28 -47 178 -55 214 -2 9 -16 61 -30 116 -15
55 -28 107 -30 115 -3 15 -78 308 -190 745 -32 121 -58 227 -60 235 -2 8 -15
60 -29 115 -31 116 -104 398 -182 705 -30 118 -73 285 -96 370 -22 85 -41 162
-43 170 -2 8 -22 87 -45 175 -23 88 -45 176 -50 195 -4 19 -22 89 -39 155 -17
66 -33 127 -35 135 -2 8 -9 35 -16 60 -7 25 -13 52 -15 60 -2 8 -22 87 -45
175 -23 88 -43 167 -45 175 -2 8 -29 114 -60 235 -52 203 -92 358 -100 395
-15 66 -29 117 -37 126 -12 16 -4864 16 -4877 0z m2385 -1804 c4 -26 8 -56 9
-67 1 -11 5 -33 8 -50 4 -16 9 -50 12 -75 5 -40 18 -116 29 -175 2 -11 9 -54
16 -95 6 -41 15 -88 20 -105 5 -16 11 -48 15 -70 6 -48 41 -214 96 -460 22
-99 43 -191 45 -205 3 -14 21 -88 40 -165 20 -77 37 -147 39 -155 2 -8 31
-127 65 -265 101 -414 186 -763 215 -885 15 -63 32 -133 38 -155 6 -22 12 -48
14 -58 3 -20 59 -243 74 -301 6 -22 13 -48 15 -59 7 -41 56 -243 65 -274 6
-17 12 -43 15 -57 2 -14 22 -99 45 -188 52 -212 68 -279 74 -303 14 -62 36
-155 44 -185 6 -19 17 -64 25 -100 9 -36 43 -177 76 -315 34 -137 63 -258 65
-269 3 -10 14 -56 25 -101 11 -45 22 -91 24 -101 2 -11 14 -57 26 -104 12 -47
24 -94 26 -105 2 -11 11 -49 20 -84 9 -36 17 -72 19 -80 2 -9 24 -99 49 -201
25 -101 43 -186 41 -188 -5 -5 -2905 -5 -2910 0 -2 2 14 75 36 163 21 88 41
169 43 180 3 11 14 56 25 100 40 159 163 660 167 678 2 10 6 27 9 37 3 10 7
27 10 37 2 10 22 92 45 183 23 91 43 172 45 180 2 8 13 53 24 100 12 47 24 96
27 110 3 14 12 52 21 85 8 33 16 65 17 70 1 6 5 19 9 30 3 11 8 31 11 45 3 14
7 34 10 45 32 130 127 515 131 530 2 11 14 58 26 105 11 47 22 92 24 100 2 8
24 98 50 200 26 102 48 192 50 200 3 13 158 642 172 695 2 11 9 39 14 63 5 24
11 47 13 51 3 4 17 59 31 122 31 133 27 116 61 244 14 55 27 107 29 115 2 8
15 65 30 125 32 132 35 143 41 175 3 14 16 71 29 127 21 86 63 274 81 363 18
87 104 531 109 560 3 19 7 46 10 60 19 103 23 126 24 152 1 11 11 18 34 20 49
5 54 1 63 -50z"/>
<path d="M45740 27384 l0 -6674 23 -1 c28 -1 3083 -1 3118 0 l27 1 0 6674 -1
6673 -1583 0 -1584 1 0 -6674z"/>
<path d="M42339 19243 c0 -16 -1 -371 -1 -790 0 -420 -2 -763 -3 -763 -1 0
-42 59 -91 132 -49 72 -102 144 -117 159 -54 54 -265 139 -407 163 -19 3 -46
8 -60 11 -149 30 -405 23 -590 -16 -313 -64 -586 -225 -784 -460 -146 -174
-294 -509 -322 -729 -3 -25 -7 -52 -9 -60 -13 -49 -20 -170 -20 -355 0 -215 7
-314 31 -415 3 -14 8 -34 10 -45 71 -363 283 -693 565 -883 92 -62 292 -150
379 -167 8 -2 51 -11 95 -21 91 -20 418 -29 495 -14 25 5 81 16 125 24 148 29
290 83 404 154 69 43 59 32 175 197 54 77 104 146 111 153 10 11 13 -28 13
-210 0 -122 1 -230 1 -238 1 -13 34 -15 241 -14 133 1 243 4 246 7 4 4 8 3931
5 4170 l-1 37 -245 0 -245 0 -1 -27z m-797 -1458 c24 -4 56 -9 71 -11 16 -3
56 -14 90 -26 328 -112 537 -369 612 -753 26 -136 27 -637 1 -757 -3 -12 -7
-36 -10 -53 -8 -61 -46 -192 -75 -264 -36 -86 -92 -191 -103 -191 -5 0 -8 -4
-8 -10 0 -26 -130 -156 -213 -212 -62 -42 -163 -90 -230 -109 -52 -16 -43 -14
-100 -23 -27 -4 -59 -9 -70 -12 -84 -17 -279 0 -392 34 -153 46 -327 182 -426
332 -104 158 -177 373 -204 599 -4 30 -9 63 -11 75 -6 31 -6 304 0 356 3 25 8
67 11 94 26 219 111 443 226 595 89 118 165 183 289 248 103 53 185 79 295 90
33 3 61 7 63 8 5 5 138 -3 184 -10z"/>
<path d="M15489 19010 c-18 -4 -30 -28 -64 -125 -24 -66 -64 -178 -90 -250
-26 -71 -51 -143 -57 -160 -5 -16 -13 -39 -18 -50 -5 -11 -63 -173 -130 -360
-66 -187 -126 -353 -133 -370 -6 -16 -12 -34 -14 -40 -1 -5 -22 -66 -48 -135
-26 -69 -50 -136 -55 -150 -4 -14 -34 -97 -65 -185 -32 -88 -75 -207 -95 -265
-21 -58 -72 -199 -114 -315 -42 -115 -79 -217 -81 -225 -4 -15 -140 -397 -155
-435 -29 -76 -45 -118 -95 -260 -31 -88 -70 -196 -87 -240 -16 -44 -31 -87
-34 -95 -3 -13 -33 -99 -88 -247 -11 -32 -12 -43 -3 -43 104 -5 510 -1 515 4
4 4 111 319 237 699 l230 692 726 0 726 0 172 -510 c95 -280 173 -514 174
-520 2 -5 30 -90 62 -187 56 -167 61 -178 85 -179 151 -3 510 -3 510 1 0 3
-25 77 -56 165 -30 88 -64 187 -75 220 -11 33 -38 110 -59 170 -21 61 -84 243
-139 405 -56 162 -105 304 -110 315 -5 11 -12 29 -14 40 -3 11 -42 126 -87
255 -106 306 -197 571 -220 640 -10 30 -33 96 -50 145 -31 87 -223 644 -240
695 -37 111 -182 529 -189 545 -5 11 -12 29 -14 40 -10 38 -104 305 -110 312
-8 7 -616 10 -648 3z m479 -930 c22 -69 81 -253 132 -410 50 -157 95 -294 100
-305 4 -11 21 -63 38 -115 16 -52 51 -160 76 -239 26 -78 45 -145 42 -148 -4
-4 -1003 -7 -1154 -4 -13 1 -20 5 -17 11 3 5 26 67 50 137 24 71 72 207 105
303 34 96 63 180 64 185 2 6 6 17 9 25 3 8 26 74 51 145 24 72 76 222 116 335
39 113 89 257 110 320 21 63 53 153 69 199 17 46 31 87 32 90 0 6 106 -310
177 -529z"/>
<path d="M18122 19006 c-7 -13 -7 -3934 1 -3942 11 -11 487 -10 488 1 0 13 0
3869 0 3915 l-1 35 -241 0 c-136 0 -243 -4 -247 -9z"/>
<path d="M22178 18175 c-2 -1 -41 -5 -86 -9 -46 -3 -103 -11 -125 -16 -23 -5
-57 -11 -74 -15 -54 -9 -194 -55 -263 -87 -124 -55 -183 -102 -244 -191 -137
-199 -166 -239 -167 -236 -1 2 -3 108 -4 234 -1 127 -3 232 -4 235 0 3 -110 5
-243 5 l-243 0 -3 -1983 -2 -1982 248 0 247 0 0 670 c0 368 3 666 6 662 4 -4
47 -69 97 -144 50 -75 106 -148 125 -162 59 -45 233 -114 330 -132 17 -2 33
-6 36 -8 7 -5 99 -20 186 -31 51 -6 259 -7 305 0 19 2 55 7 80 10 25 3 52 8
60 10 8 2 31 7 50 11 19 3 40 7 45 8 6 1 16 5 23 9 6 5 12 6 12 3 0 -7 157 48
230 81 325 148 581 435 709 794 36 101 78 263 87 339 3 30 8 57 10 60 6 12 18
209 18 310 -1 246 -41 498 -109 675 -9 22 -19 49 -22 60 -6 19 -92 190 -116
230 -65 110 -243 295 -352 367 -217 141 -457 213 -742 222 -56 2 -103 3 -105
1z m122 -389 c484 -68 785 -538 783 -1226 0 -177 -12 -286 -50 -440 -118 -476
-450 -760 -892 -761 -376 -1 -695 215 -835 565 -31 76 -29 69 -56 186 -28 122
-34 199 -33 430 0 204 5 285 23 390 5 30 12 70 15 87 8 52 55 192 85 260 83
183 228 338 395 421 105 52 182 74 305 88 30 4 56 7 57 8 6 5 155 -1 203 -8z"/>
<path d="M25357 18174 c-1 -1 -35 -5 -75 -9 -41 -3 -83 -8 -95 -11 -12 -2 -36
-6 -53 -8 -123 -17 -329 -90 -457 -163 -219 -124 -407 -325 -528 -564 -72
-145 -145 -388 -163 -549 -3 -25 -8 -67 -11 -95 -8 -63 -8 -324 0 -390 3 -27
8 -72 11 -100 12 -109 67 -329 100 -402 8 -17 14 -33 14 -36 0 -8 73 -161 80
-167 3 -3 13 -21 23 -41 22 -43 118 -172 168 -226 88 -95 218 -195 340 -260
117 -64 320 -132 434 -147 22 -3 58 -8 80 -11 105 -15 342 -20 430 -9 22 3 47
5 55 5 33 2 219 41 280 60 136 41 279 111 400 197 95 67 236 213 307 317 88
130 186 346 218 481 51 213 60 295 60 529 0 191 -6 275 -26 376 -5 30 -12 65
-15 79 -25 147 -135 410 -225 543 -268 395 -677 596 -1222 601 -71 1 -129 0
-130 0z m253 -388 c111 -15 202 -45 300 -98 179 -95 315 -248 402 -451 54
-126 54 -127 67 -172 44 -165 59 -285 60 -475 1 -156 -5 -225 -30 -360 -84
-449 -350 -766 -709 -845 -103 -23 -119 -25 -220 -26 -430 -4 -761 255 -899
703 -16 52 -32 108 -35 124 -2 16 -7 38 -9 49 -3 12 -8 48 -12 80 -4 33 -9 69
-11 80 -6 28 -5 345 0 375 3 14 7 45 10 70 3 25 8 56 11 70 2 14 7 39 11 55 3
17 19 75 36 130 88 290 270 513 508 622 61 28 183 61 250 69 30 3 56 7 57 8 5
4 169 -2 213 -8z"/>
<path d="M33157 18174 c-1 -1 -29 -5 -62 -8 -392 -41 -727 -228 -957 -536 -65
-87 -93 -134 -147 -245 -34 -70 -96 -236 -106 -283 -2 -9 -10 -46 -19 -82 -18
-81 -21 -96 -41 -276 -12 -96 -5 -380 11 -489 16 -115 23 -154 34 -195 5 -19
11 -48 14 -64 11 -63 61 -197 116 -311 162 -337 443 -567 805 -659 84 -21 125
-28 235 -41 54 -6 259 -6 320 0 542 54 939 347 1106 817 17 48 54 201 54 223
0 13 -39 15 -260 15 l-260 0 -1 -22 c-1 -34 -5 -51 -29 -125 -85 -263 -283
-448 -549 -513 -96 -23 -286 -25 -389 -3 -337 69 -557 326 -641 749 -17 90
-22 126 -36 260 l-4 41 1087 1 c598 0 1094 1 1102 1 17 1 18 11 21 211 6 518
-143 940 -427 1209 -230 218 -499 319 -861 325 -63 1 -115 1 -116 0z m227
-388 c151 -25 283 -88 380 -183 53 -51 122 -146 157 -214 44 -89 101 -264 114
-354 3 -23 7 -51 10 -64 2 -13 7 -55 11 -92 6 -63 5 -69 -12 -70 -93 -4 -1676
0 -1680 4 -7 7 14 159 33 232 8 33 16 67 18 75 2 8 14 45 28 81 123 325 341
522 641 578 90 16 224 20 300 7z"/>
<path d="M38147 18175 c-1 -2 -33 -5 -72 -8 -482 -42 -892 -324 -1108 -762
-73 -147 -132 -331 -152 -470 -3 -22 -7 -49 -10 -60 -25 -119 -25 -492 1 -655
34 -226 74 -358 156 -530 77 -160 130 -233 260 -362 142 -140 315 -237 529
-297 42 -12 96 -24 120 -27 24 -3 64 -10 89 -14 25 -5 124 -8 220 -8 251 2
444 43 647 140 271 128 483 360 587 638 27 74 63 200 70 248 l4 32 -258 0
-259 0 -6 -37 c-11 -65 -55 -185 -93 -256 -85 -156 -219 -271 -392 -338 -30
-11 -64 -23 -75 -25 -11 -2 -33 -6 -48 -10 -50 -11 -80 -13 -167 -14 -316 -4
-563 138 -712 410 -78 142 -138 370 -154 584 l-5 73 1095 0 c603 0 1099 3
1103 7 10 10 10 383 0 471 -19 163 -39 260 -82 390 -118 362 -338 624 -639
764 -62 29 -219 80 -266 87 -19 3 -42 7 -50 9 -41 11 -323 27 -333 20z m258
-400 c42 -9 85 -20 94 -24 9 -5 30 -15 46 -22 48 -22 127 -73 172 -114 88 -77
194 -251 233 -380 20 -70 31 -109 36 -140 3 -16 9 -46 14 -65 8 -32 12 -59 25
-177 5 -43 5 -43 -28 -44 -17 0 -400 -1 -849 -2 -539 -1 -818 1 -819 8 -6 52
24 208 61 331 93 302 287 517 545 603 50 17 118 33 150 37 33 3 61 7 63 9 8 8
189 -6 257 -20z"/>
<path d="M36358 18165 c-2 -2 -23 -5 -48 -8 -65 -8 -197 -53 -265 -91 -48 -27
-68 -47 -121 -124 -35 -51 -64 -97 -64 -101 0 -5 -4 -11 -8 -13 -5 -1 -38 -47
-73 -101 l-64 -98 -5 233 -5 233 -240 -1 c-132 -1 -242 -2 -245 -3 -3 0 -5
-683 -5 -1516 l0 -1515 60 -1 c148 -2 428 0 431 4 2 1 5 435 7 962 2 528 7
976 11 995 61 291 148 451 312 577 131 100 297 150 504 152 l75 1 0 183 c1
201 2 198 -66 217 -32 9 -184 21 -191 15z"/>
<path d="M27163 18087 c-2 -4 25 -98 61 -210 35 -111 88 -276 117 -367 29 -91
54 -167 55 -170 0 -3 3 -12 6 -20 3 -8 15 -44 26 -80 11 -36 46 -146 78 -245
32 -99 58 -182 59 -185 0 -3 6 -21 12 -40 6 -19 43 -134 81 -255 39 -121 103
-321 142 -445 39 -124 99 -310 132 -415 33 -104 63 -199 67 -210 5 -11 13 -36
19 -55 6 -19 29 -93 52 -165 23 -71 43 -135 44 -142 1 -7 5 -15 8 -18 5 -6
588 -13 588 -8 0 3 27 106 88 338 22 83 74 281 116 440 42 160 88 331 101 380
14 50 63 236 110 415 46 179 89 339 94 355 9 27 48 176 56 215 8 38 106 394
109 397 2 2 7 -11 11 -29 10 -43 8 -35 43 -168 17 -63 38 -142 47 -175 62
-234 77 -292 80 -309 3 -10 12 -44 21 -75 9 -31 25 -90 36 -131 11 -41 26
-100 34 -130 8 -30 16 -63 19 -72 2 -10 15 -59 29 -110 14 -51 44 -165 67
-253 23 -88 57 -218 76 -290 19 -71 45 -170 58 -220 13 -49 33 -126 45 -170
12 -44 39 -147 61 -230 22 -82 42 -157 44 -165 4 -13 45 -15 297 -13 l292 1
23 69 c12 37 52 163 88 278 37 116 74 230 82 255 8 25 16 52 18 60 2 8 19 62
38 120 19 58 60 186 92 285 31 99 64 200 72 225 8 25 16 52 18 60 2 8 19 62
38 120 34 104 90 276 142 440 73 230 168 530 210 660 26 80 48 150 49 155 1 6
23 75 49 156 26 80 47 147 47 150 0 2 -119 4 -264 4 l-264 0 -56 -205 c-31
-113 -81 -295 -112 -405 -31 -110 -59 -213 -64 -230 -4 -16 -43 -156 -85 -310
-43 -154 -92 -334 -110 -400 -51 -188 -133 -485 -150 -540 -8 -27 -33 -117
-55 -200 -23 -82 -48 -172 -57 -199 l-16 -49 -39 149 c-21 82 -44 167 -49 189
-10 42 -90 343 -210 792 -38 144 -72 270 -74 280 -2 10 -31 119 -64 243 -34
124 -63 234 -66 245 -7 30 -31 121 -55 210 -12 44 -23 87 -25 95 -3 15 -28
106 -67 250 -11 41 -24 77 -29 80 -4 3 -141 5 -305 5 -252 0 -298 -3 -305 -15
-5 -8 -25 -80 -45 -160 -20 -80 -38 -152 -40 -160 -2 -8 -13 -51 -25 -95 -11
-44 -23 -87 -25 -95 -5 -24 -166 -642 -229 -885 -31 -121 -70 -269 -85 -330
-23 -87 -79 -303 -105 -405 -2 -8 -22 -87 -45 -175 -23 -88 -46 -178 -52 -200
l-11 -40 -12 45 c-46 166 -57 207 -60 221 -2 9 -12 47 -24 85 -11 38 -27 94
-35 124 -7 30 -42 156 -76 280 -34 124 -63 230 -64 235 -4 15 -25 93 -41 150
-8 28 -33 118 -55 200 -23 83 -48 173 -55 200 -23 78 -116 418 -120 435 -5 24
-114 418 -136 495 -11 39 -22 74 -23 80 -3 12 -555 14 -563 2z"/>
</g>
</svg>
